<svg width="600" height="170" viewBox="0 0 600 170" fill="none" xmlns="http://www.w3.org/2000/svg">
<path d="M235.22 33.332L235.062 33.373C232.658 33.9913 227.781 36.8882 227.614 43.5254C227.446 50.2594 228.383 91.7193 228.877 111.791C231.87 112.306 236.645 112.791 241.449 112.6C246.355 112.404 251.247 111.508 254.32 109.266C257.436 106.992 259.448 105.048 260.695 103.549C261.319 102.799 261.749 102.161 262.032 101.65C262.317 101.136 262.445 100.762 262.476 100.535L262.5 100.352H264.216L264.158 100.608L259.4 121.983C269.552 127.529 284.777 134.196 301.116 138.15C319.386 142.572 339.01 143.593 354.492 135.916L354.5 135.912L354.508 135.909C393.622 120.331 419.674 133.497 427.838 142.087L427.561 142.403C414.314 132.731 401.49 132.514 387.983 133.569C384.643 133.83 380.077 135.453 374.765 137.774C369.458 140.093 363.436 143.094 357.187 146.094C350.94 149.091 344.469 152.086 338.276 154.384C332.086 156.681 326.159 158.287 321.003 158.5H320.995C302.578 158.5 288.974 154.265 276.519 148.923C264.051 143.576 252.785 137.148 238.958 132.715L238.955 132.714C231.737 130.278 213.471 127.585 198.169 136.273V136.388L198.064 136.449C196.838 137.166 195.796 137.864 195.037 138.377C194.659 138.632 194.347 138.845 194.12 138.989C194.007 139.061 193.909 139.12 193.831 139.159C193.793 139.179 193.753 139.197 193.715 139.209C193.696 139.215 193.671 139.222 193.645 139.225C193.62 139.227 193.578 139.229 193.533 139.214C193.421 139.176 193.293 139.097 193.165 139.002C193.033 138.904 192.883 138.777 192.727 138.63C192.412 138.335 192.055 137.951 191.72 137.535C191.385 137.119 191.066 136.666 190.83 136.232C190.602 135.812 190.438 135.385 190.433 135.018C190.133 132.769 190.699 130.425 191.802 128.12C192.906 125.811 194.554 123.527 196.432 121.396C200.148 117.179 204.784 113.532 207.963 111.437C207.398 91.3938 206.276 49.9345 206.276 43.5205C206.276 37.2316 201.312 34.2739 198.825 33.583L198.671 33.54V31.4785H235.22V33.332ZM471.229 52.8252C478.685 49.752 486.905 49.0463 494.774 50.8047C502.644 52.5631 509.783 56.7002 515.221 62.6543L506.299 70.8027C502.533 66.6795 497.589 63.8144 492.14 62.5967C486.69 61.379 480.997 61.8678 475.834 63.9961C470.671 66.1244 466.288 69.7896 463.279 74.4941C460.271 79.1986 458.783 84.7147 459.017 90.2939C459.25 95.8733 461.194 101.246 464.586 105.683C467.978 110.119 472.653 113.405 477.976 115.094C483.298 116.783 489.012 116.793 494.341 115.124C499.67 113.455 504.356 110.186 507.764 105.762L517.336 113.136C512.415 119.524 505.648 124.244 497.953 126.654C490.258 129.065 482.007 129.049 474.321 126.61C466.635 124.172 459.885 119.428 454.987 113.021C450.09 106.615 447.282 98.8566 446.944 90.7998C446.607 82.7432 448.756 74.7777 453.101 67.9844C457.445 61.1909 463.774 55.8984 471.229 52.8252ZM543.906 52.8252C551.361 49.752 559.582 49.0463 567.451 50.8047C575.321 52.5631 582.459 56.7002 587.897 62.6543L578.976 70.8027C575.21 66.6795 570.266 63.8144 564.816 62.5967C559.366 61.379 553.674 61.8678 548.511 63.9961C543.348 66.1244 538.965 69.7896 535.956 74.4941C532.948 79.1986 531.46 84.7147 531.693 90.2939C531.927 95.8733 533.871 101.246 537.263 105.683C540.654 110.119 545.329 113.405 550.652 115.094C555.975 116.783 561.689 116.793 567.018 115.124C572.347 113.455 577.033 110.186 580.44 105.762L590.013 113.136C585.092 119.524 578.325 124.244 570.63 126.654C562.935 129.065 554.684 129.049 546.998 126.61C539.312 124.172 532.562 119.428 527.664 113.021C522.767 106.615 519.959 98.8566 519.621 90.7998C519.284 82.7432 521.433 74.7777 525.777 67.9844C530.122 61.1909 536.451 55.8984 543.906 52.8252ZM327.333 60C344.601 60.0004 358.601 73.9992 358.601 91.2676C358.6 108.536 344.601 122.535 327.333 122.535C310.064 122.535 296.066 108.536 296.065 91.2676C296.065 73.999 310.064 60 327.333 60ZM384.797 72.4648C389.163 66.4789 400.685 55.902 411.84 61.4795C423.037 68.6626 421.347 81.8994 421.347 101.409C421.347 117.676 421.346 115.142 427.896 120.846V122.113H402.544L403.812 117.888L402.544 78.8027C402.473 76.549 401.064 71.9581 395.994 71.6201C390.924 71.2823 386.417 74.437 384.797 76.0566V114.719C385.219 116.338 386.953 119.662 390.502 120V120.846L362.403 120.634V120C363.742 119.789 366.502 118.437 366.84 114.719C367.262 110.071 366.84 72.8897 365.572 70.9863C364.305 69.0851 361.981 68.5215 361.136 67.8174L361.77 66.127L383.529 60.2119L384.797 72.4648ZM288.037 112.394C288.248 114.013 289.389 117.338 292.263 117.676L292.685 119.154H266.91V118.099C268.107 117.676 270.544 115.859 270.713 111.972C270.882 108.084 270.361 85.1402 270.079 74.1543C269.586 72.7458 267.966 69.887 265.432 69.7178V68.6611L286.98 61.4785L288.037 112.394ZM324.947 64.2646C318.497 64.737 314.167 77.3831 315.274 92.5107C316.382 107.638 322.509 119.519 328.959 119.047C335.409 118.574 339.74 105.928 338.632 90.8008C337.524 75.6734 331.397 63.793 324.947 64.2646ZM277.474 35.4932C282.841 35.4932 287.192 39.8446 287.192 45.2119C287.192 50.579 282.841 54.9297 277.474 54.9297C272.107 54.9296 267.756 50.5789 267.756 45.2119C267.756 39.8447 272.106 35.4932 277.474 35.4932Z" fill="black"/>
<path d="M12.3027 68.5326C12.3027 76.0702 13.8104 83.534 16.7396 90.4978C19.6689 97.4617 23.9623 103.789 29.3749 109.119C34.7874 114.449 41.213 118.677 48.2848 121.561C55.3567 124.446 62.9362 125.93 70.5907 125.93C78.2451 125.93 85.8247 124.446 92.8965 121.561C99.9683 118.677 106.394 114.449 111.806 109.119C117.219 103.789 121.512 97.4617 124.442 90.4978C127.371 83.534 128.879 76.0702 128.879 68.5326C128.879 60.995 127.371 53.5312 124.442 46.5674C121.512 39.6036 117.219 33.2761 111.806 27.9462C106.394 22.6163 99.9683 18.3884 92.8965 15.5039C85.8247 12.6194 78.2451 11.1348 70.5907 11.1348C62.9362 11.1348 55.3567 12.6194 48.2848 15.5039C41.213 18.3884 34.7874 22.6163 29.3749 27.9462C23.9623 33.2761 19.6689 39.6036 16.7396 46.5674C13.8104 53.5312 12.3027 60.995 12.3027 68.5326Z" fill="#F9DA3C"/>
<path d="M21.1572 37.0684C39.4999 11.1724 63.3411 2.55958 83.2979 4.96484C102.259 7.25086 117.938 19.6579 120.65 36.459C120.929 36.5519 121.229 36.656 121.547 36.7734C123.228 37.3962 125.482 38.417 127.618 40.001C129.758 41.5881 131.885 43.8212 133.107 46.8779C134.348 49.9826 134.546 53.6657 133.258 57.9121C132.437 60.6201 132.995 62.347 134.216 63.873C135.642 65.6567 138.025 67.2154 141.144 69.0488C141.532 69.2768 141.922 69.5041 142.312 69.7305C144.984 71.2852 148.007 73.0438 150.495 75.1836C153.439 77.7153 155.939 81.0232 156.501 85.5986C157.136 90.7682 156.531 94.8379 155.056 98.0859C153.578 101.339 151.341 103.51 149.152 105.066C147.664 106.125 145.983 107.021 144.732 107.688C144.274 107.932 143.873 108.145 143.561 108.324C143.046 108.62 142.738 108.832 142.559 108.978C142.571 109.471 142.6 110.081 142.635 110.782C142.758 113.325 142.942 117.076 142.537 120.906C142.171 124.37 141.018 127.113 138.972 129.326C137.005 131.454 134.405 132.877 131.579 134.099C128.739 135.327 125.585 135.43 122.68 135.069C119.749 134.706 116.832 133.841 114.297 132.891C111.75 131.936 109.502 130.863 107.896 130.032C107.615 129.887 107.353 129.748 107.111 129.618C97.2577 137.65 91.91 143.235 87.6299 150.193C86.1069 152.669 84.7007 155.35 83.2725 158.419L80.3477 164.706L77.7725 158.269L77.7715 158.267L77.7666 158.254L77.7451 158.2L77.6523 157.974C77.569 157.773 77.4448 157.473 77.2812 157.09C76.8222 156.019 76.3464 154.955 75.8555 153.898C74.6232 151.243 72.8756 147.723 70.8018 144.222C68.7136 140.696 66.3662 137.312 63.958 134.847C61.4527 132.283 59.3871 131.23 57.8623 131.23C55.8059 131.23 53.1869 130.389 50.5078 129.182C47.7189 127.925 44.4965 126.103 41.1221 123.789C34.3774 119.166 26.8442 112.46 20.8008 104.093C14.7537 95.7207 10.1238 85.5778 9.40332 74.1357C8.67929 62.6458 11.9162 50.1148 21.1572 37.0684ZM82.5801 10.916C65.0323 8.80097 43.2555 16.2395 26.0488 40.5332C17.5156 52.5805 14.7564 63.7755 15.3857 73.7598C16.0169 83.7921 20.0886 92.8712 25.6592 100.584C31.2333 108.301 38.2351 114.543 44.5117 118.847C45.5639 119.569 46.6358 120.261 47.7266 120.924C42.6242 114.059 39.1741 107.001 37.7236 98.458C35.6391 86.1739 37.76 71.2203 44.1367 49.8779L49.8799 51.5938C43.5697 72.7127 41.7855 86.5734 43.6328 97.4551C45.4028 107.884 50.5747 115.951 59.2607 125.339C62.7221 125.842 65.7793 128.136 68.2451 130.659C71.1347 133.617 73.7647 137.463 75.959 141.168C77.8584 144.375 79.4854 147.568 80.7207 150.16C81.2101 149.267 81.718 148.384 82.2441 147.513C82.6673 145.477 83.2489 143.232 83.832 140.98C84.1584 139.733 84.4759 138.483 84.7852 137.23C85.7022 133.474 86.4395 129.782 86.5498 126.346C86.6594 122.92 86.138 119.96 84.7266 117.527C83.345 115.147 80.9333 112.966 76.6699 111.39C70.849 109.237 67.0648 104.564 64.9844 98.8682C62.9202 93.2173 62.4605 86.4165 63.2637 79.4717C64.864 65.6329 71.5968 50.3044 82.4189 40.9092C84.7979 38.8443 85.8222 37.3362 86.1758 36.4102C86.4363 35.7276 86.2876 35.5686 86.2334 35.5107C86.2297 35.5068 86.2262 35.5021 86.2227 35.498C86.0063 35.2343 85.3444 34.7561 83.9014 34.4229C82.5277 34.1064 80.7695 34.0003 78.8379 34.165C74.8996 34.4995 70.9044 35.8924 68.5039 38.0068C67.3441 39.0282 66.6452 40.134 66.373 41.3027C66.1057 42.4517 66.1805 43.9569 67.085 45.9258L61.6377 48.4277C60.2789 45.468 59.9154 42.6018 60.5352 39.9424C61.1501 37.3022 62.6648 35.163 64.542 33.5088C68.2161 30.2735 73.5954 28.5952 78.3291 28.1924C80.7337 27.988 83.1365 28.0958 85.248 28.583C87.2895 29.0535 89.4376 29.9701 90.8545 31.6963C92.4493 33.6381 92.7114 36.0976 91.7754 38.5488C90.9105 40.8126 89.0403 43.098 86.3486 45.4355C76.8887 53.6482 70.6844 67.4732 69.2178 80.1602C68.4871 86.4787 68.9606 92.2845 70.6143 96.8115C72.2518 101.294 74.97 104.37 78.749 105.768C84.0863 107.741 87.7135 110.734 89.9102 114.519C92.0762 118.252 92.6722 122.447 92.541 126.538C92.4415 129.643 91.9185 132.809 91.2598 135.841C94.6432 132.317 98.701 128.722 103.811 124.577V104.574H109.805V124.262C110.085 124.413 110.367 124.563 110.65 124.709C112.112 125.465 114.136 126.43 116.4 127.278C118.677 128.131 121.114 128.836 123.418 129.122C125.746 129.411 127.707 129.244 129.2 128.599C131.788 127.48 133.462 126.457 134.57 125.258C135.6 124.144 136.323 122.678 136.576 120.277C136.929 116.937 136.789 114.121 136.667 111.68C136.611 110.574 136.561 109.545 136.561 108.579C136.561 107.005 137.281 105.799 138.094 104.954C138.844 104.175 139.781 103.584 140.574 103.129C141.153 102.799 141.737 102.481 142.327 102.172C143.447 101.577 144.515 101.01 145.679 100.183C147.274 99.048 148.676 97.6365 149.599 95.6064C150.524 93.5698 151.083 90.6545 150.553 86.3301C150.233 83.7276 148.843 81.6687 146.587 79.7285C144.55 77.9772 142.056 76.5228 139.338 74.9375C138.932 74.7008 138.522 74.4607 138.106 74.2168C135.104 72.4517 131.754 70.391 129.535 67.6172C127.111 64.5856 126.114 60.8156 127.522 56.1729C128.463 53.0701 128.219 50.7979 127.542 49.1035C126.846 47.3629 125.58 45.9522 124.048 44.8164C122.512 43.6778 120.815 42.895 119.464 42.3945C118.797 42.1476 118.235 41.9768 117.851 41.8701C117.658 41.8174 117.512 41.78 117.42 41.7578L117.343 41.7393L117.324 41.7354L117.317 41.7344L117.313 41.7324H117.309L115.159 41.2812L114.948 39.0879C113.574 24.821 100.358 13.0594 82.5801 10.916ZM95.9863 63.6895C92.3847 57.1988 109.133 55.4865 114.706 60.3906C120.837 65.7858 116.166 87.1661 110.872 80.9482C107.588 77.0913 111.552 72.0945 108.263 68.2412C104.943 64.352 98.4667 68.1602 95.9863 63.6895Z" fill="black"/>
</svg>
